<?xml version="1.0" encoding="UTF-8" standalone="no"?>
<!DOCTYPE svg PUBLIC "-//W3C//DTD SVG 1.1//EN"
 "http://www.w3.org/Graphics/SVG/1.1/DTD/svg11.dtd">
<!-- Generated by graphviz version 2.40.1 (20161225.0304)
 -->
<!-- Title: G Pages: 1 -->
<svg width="521pt" height="165pt"
 viewBox="0.00 0.00 520.69 165.00" xmlns="http://www.w3.org/2000/svg" xmlns:xlink="http://www.w3.org/1999/xlink">
<g id="graph0" class="graph" transform="scale(1 1) rotate(0) translate(4 161)">
<title>G</title>
<polygon fill="#ffffff" stroke="transparent" points="-4,4 -4,-161 516.6892,-161 516.6892,4 -4,4"/>
<g id="clust1" class="cluster">
<title>cluster_Global</title>
<path fill="none" stroke="#c0c0c0" d="M349.4816,-8C349.4816,-8 500.6892,-8 500.6892,-8 506.6892,-8 512.6892,-14 512.6892,-20 512.6892,-20 512.6892,-137 512.6892,-137 512.6892,-143 506.6892,-149 500.6892,-149 500.6892,-149 349.4816,-149 349.4816,-149 343.4816,-149 337.4816,-143 337.4816,-137 337.4816,-137 337.4816,-20 337.4816,-20 337.4816,-14 343.4816,-8 349.4816,-8"/>
<text text-anchor="middle" x="425.0854" y="-136.2" font-family="Times,serif" font-size="11.00" fill="#c0c0c0">Global</text>
</g>
<g id="clust2" class="cluster">
<title>cluster_\smtech</title>
<path fill="none" stroke="#c0c0c0" d="M357.4816,-16C357.4816,-16 492.6892,-16 492.6892,-16 498.6892,-16 504.6892,-22 504.6892,-28 504.6892,-28 504.6892,-110 504.6892,-110 504.6892,-116 498.6892,-122 492.6892,-122 492.6892,-122 357.4816,-122 357.4816,-122 351.4816,-122 345.4816,-116 345.4816,-110 345.4816,-110 345.4816,-28 345.4816,-28 345.4816,-22 351.4816,-16 357.4816,-16"/>
<text text-anchor="middle" x="425.0854" y="-109.2" font-family="Times,serif" font-size="11.00" fill="#c0c0c0">smtech</text>
</g>
<g id="clust3" class="cluster">
<title>cluster_\smtech\StMarksReflexiveCanvasLTI</title>
<path fill="none" stroke="#c0c0c0" d="M365.4816,-24C365.4816,-24 484.6892,-24 484.6892,-24 490.6892,-24 496.6892,-30 496.6892,-36 496.6892,-36 496.6892,-83 496.6892,-83 496.6892,-89 490.6892,-95 484.6892,-95 484.6892,-95 365.4816,-95 365.4816,-95 359.4816,-95 353.4816,-89 353.4816,-83 353.4816,-83 353.4816,-36 353.4816,-36 353.4816,-30 359.4816,-24 365.4816,-24"/>
<text text-anchor="middle" x="425.0854" y="-82.2" font-family="Times,serif" font-size="11.00" fill="#c0c0c0">StMarksReflexiveCanvasLTI</text>
</g>
<!-- \\smtech\\StMarksReflexiveCanvasLTI\\Toolbox -->
<g id="node1" class="node">
<title>\\smtech\\StMarksReflexiveCanvasLTI\\Toolbox</title>
<polygon fill="none" stroke="#000000" points="456.7933,-68 394.3775,-68 394.3775,-32 456.7933,-32 456.7933,-68"/>
<text text-anchor="middle" x="425.5854" y="-46.7" font-family="Courier,monospace" font-size="11.00" fill="#000000">Toolbox</text>
</g>
<!-- \\smtech\\ReflexiveCanvasLTI\\Toolbox -->
<g id="node2" class="node">
<title>\\smtech\\ReflexiveCanvasLTI\\Toolbox</title>
<ellipse fill="none" stroke="#000000" cx="144.7408" cy="-50" rx="144.982" ry="18"/>
<text text-anchor="middle" x="144.7408" y="-45.8" font-family="Times,serif" font-size="14.00" fill="#c0c0c0">\smtech\ReflexiveCanvasLTI\Toolbox</text>
</g>
<!-- \\smtech\\StMarksReflexiveCanvasLTI\\Toolbox&#45;&gt;\\smtech\\ReflexiveCanvasLTI\\Toolbox -->
<g id="edge1" class="edge">
<title>\\smtech\\StMarksReflexiveCanvasLTI\\Toolbox&#45;&gt;\\smtech\\ReflexiveCanvasLTI\\Toolbox</title>
<path fill="none" stroke="#000000" d="M394.4571,-50C370.6332,-50 335.8251,-50 299.7194,-50"/>
<polygon fill="none" stroke="#000000" points="299.5095,-46.5001 289.5094,-50 299.5094,-53.5001 299.5095,-46.5001"/>
</g>
</g>
</svg>
