<?xml version="1.0" encoding="UTF-8" standalone="no"?>
<!DOCTYPE svg PUBLIC "-//W3C//DTD SVG 1.1//EN"
 "http://www.w3.org/Graphics/SVG/1.1/DTD/svg11.dtd">
<!-- Generated by graphviz version 2.38.0 (20140413.2041)
 -->
<!-- Title: G Pages: 1 -->
<svg width="521pt" height="165pt"
 viewBox="0.00 0.00 520.69 165.00" xmlns="http://www.w3.org/2000/svg" xmlns:xlink="http://www.w3.org/1999/xlink">
<g id="graph0" class="graph" transform="scale(1 1) rotate(0) translate(4 161)">
<title>G</title>
<polygon fill="white" stroke="none" points="-4,4 -4,-161 516.689,-161 516.689,4 -4,4"/>
<g id="clust1" class="cluster"><title>cluster_Global</title>
<path fill="none" stroke="gray" d="M349.482,-8C349.482,-8 500.689,-8 500.689,-8 506.689,-8 512.689,-14 512.689,-20 512.689,-20 512.689,-137 512.689,-137 512.689,-143 506.689,-149 500.689,-149 500.689,-149 349.482,-149 349.482,-149 343.482,-149 337.482,-143 337.482,-137 337.482,-137 337.482,-20 337.482,-20 337.482,-14 343.482,-8 349.482,-8"/>
<text text-anchor="middle" x="425.085" y="-136.2" font-family="Times,serif" font-size="11.00" fill="gray">Global</text>
</g>
<g id="clust2" class="cluster"><title>cluster_\smtech</title>
<path fill="none" stroke="gray" d="M357.482,-16C357.482,-16 492.689,-16 492.689,-16 498.689,-16 504.689,-22 504.689,-28 504.689,-28 504.689,-110 504.689,-110 504.689,-116 498.689,-122 492.689,-122 492.689,-122 357.482,-122 357.482,-122 351.482,-122 345.482,-116 345.482,-110 345.482,-110 345.482,-28 345.482,-28 345.482,-22 351.482,-16 357.482,-16"/>
<text text-anchor="middle" x="425.085" y="-109.2" font-family="Times,serif" font-size="11.00" fill="gray">smtech</text>
</g>
<g id="clust3" class="cluster"><title>cluster_\smtech\StMarksReflexiveCanvasLTI</title>
<path fill="none" stroke="gray" d="M365.482,-24C365.482,-24 484.689,-24 484.689,-24 490.689,-24 496.689,-30 496.689,-36 496.689,-36 496.689,-83 496.689,-83 496.689,-89 490.689,-95 484.689,-95 484.689,-95 365.482,-95 365.482,-95 359.482,-95 353.482,-89 353.482,-83 353.482,-83 353.482,-36 353.482,-36 353.482,-30 359.482,-24 365.482,-24"/>
<text text-anchor="middle" x="425.085" y="-82.2" font-family="Times,serif" font-size="11.00" fill="gray">StMarksReflexiveCanvasLTI</text>
</g>
<!-- \\smtech\\StMarksReflexiveCanvasLTI\\Toolbox -->
<g id="node1" class="node"><title>\\smtech\\StMarksReflexiveCanvasLTI\\Toolbox</title>
<polygon fill="none" stroke="black" points="456.793,-68 394.378,-68 394.378,-32 456.793,-32 456.793,-68"/>
<text text-anchor="middle" x="425.585" y="-46.7" font-family="Courier,monospace" font-size="11.00">Toolbox</text>
</g>
<!-- \\smtech\\ReflexiveCanvasLTI\\Toolbox -->
<g id="node2" class="node"><title>\\smtech\\ReflexiveCanvasLTI\\Toolbox</title>
<ellipse fill="none" stroke="black" cx="144.741" cy="-50" rx="144.982" ry="18"/>
<text text-anchor="middle" x="144.741" y="-45.8" font-family="Times,serif" font-size="14.00" fill="gray">\smtech\ReflexiveCanvasLTI\Toolbox</text>
</g>
<!-- \\smtech\\StMarksReflexiveCanvasLTI\\Toolbox&#45;&gt;\\smtech\\ReflexiveCanvasLTI\\Toolbox -->
<g id="edge1" class="edge"><title>\\smtech\\StMarksReflexiveCanvasLTI\\Toolbox&#45;&gt;\\smtech\\ReflexiveCanvasLTI\\Toolbox</title>
<path fill="none" stroke="black" d="M394.479,-50C370.858,-50 336.019,-50 299.846,-50"/>
<polygon fill="none" stroke="black" points="299.617,-46.5001 289.617,-50 299.617,-53.5001 299.617,-46.5001"/>
</g>
</g>
</svg>
